<?xml version="1.0" encoding="UTF-8"?><svg id="Ebene_2" xmlns="http://www.w3.org/2000/svg" viewBox="0 0 272.67 153.66"><defs><style>.cls-1{fill:#1fb7f8;}</style></defs><g id="Ebene_1-2"><g><path class="cls-1" d="m132.5,52.17c-4.97,0-9,4.03-9,9s4.03,9,9,9,9-4.03,9-9-4.03-9-9-9Z"/><path class="cls-1" d="m264.14,30.92l-17.01,5.33-58.93,18.48c-8.57-11.09-19.4-20.4-32.05-27.25l-.2-.11-.2-.1-5.4-2.7-.22-.11-.22-.1c-13.76-6.28-28.68-9.47-44.34-9.47-11.45,0-22.5,1.71-32.99,5.08.16-1.03.23-2.1.18-3.2-.36-7.29-11.81-16.78-11.81-16.78,0,0-4.76,4.81-7.75,10.17-8.48-4.38-24.25-2.95-24.25-2.95,0,0,.04,19.81,7.23,26.36,1.43,1.31,2.99,2.36,4.6,3.18C20.92,52.27,7.39,74.71,2.87,100.39l-2.87,16.29h38.82c-2.66,11.48,4.53,23.97,17.88,30.45.38.19.84.4,1.34.61,2.86,1.25,5.79,2.25,8.73,2.97,7.99,1.96,15.93,2.95,23.62,2.95,24.76,0,43.04-10.41,47.71-27.17.89-3.18,1.24-6.48,1.1-9.81h71.9l-2.87-16.29c-.96-5.47-2.35-10.8-4.1-15.94l50.45-32.19,15.03-9.59c6.44-4.11,1.81-14.03-5.47-11.75ZM125.34,118.35c0,.42-.03.83-.06,1.24,0,.1-.02.21-.03.31-.04.38-.09.76-.15,1.13-.02.11-.03.22-.05.33-.09.47-.19.94-.32,1.39,0,0,0,.01,0,.02-.11.4-.25.8-.39,1.19-.04.12-.09.24-.14.36-.12.3-.24.59-.38.88-.05.11-.1.21-.15.32-.18.38-.38.75-.59,1.11-.04.06-.08.12-.12.19-.18.3-.38.6-.58.9-.07.11-.15.22-.23.32-.2.27-.4.54-.61.8-.06.08-.13.16-.19.24-.28.33-.57.65-.87.97-.07.08-.15.15-.22.22-.24.25-.49.49-.75.73-.1.09-.2.19-.31.28-.29.25-.58.5-.88.74-.06.05-.12.1-.17.14-.36.28-.74.56-1.12.83-.11.07-.22.15-.32.22-.3.2-.61.4-.92.59-.12.07-.24.15-.36.22-.42.25-.84.49-1.28.73,0,0,0,0-.01,0-.44.23-.89.46-1.35.67-.14.06-.27.13-.41.19-.36.16-.72.32-1.09.48-.13.05-.26.11-.39.16-.49.2-.98.39-1.49.57-.08.03-.16.05-.24.08-.44.15-.88.3-1.33.44-.16.05-.32.1-.48.15-.42.13-.85.25-1.28.37-.12.03-.25.07-.37.1-.55.14-1.11.28-1.67.4-.13.03-.26.06-.39.08-.45.1-.91.19-1.37.28-.18.03-.35.07-.53.1-.5.09-1.01.17-1.52.25-.1.01-.19.03-.29.04-.6.09-1.21.16-1.83.23-.17.02-.34.04-.5.05-.48.05-.96.1-1.44.14-.18.02-.37.03-.55.04-1.28.09-2.58.15-3.91.18-.19,0-.38,0-.58,0-.23,0-.46,0-.69,0-.19,0-.38,0-.56,0-.43,0-.86-.01-1.29-.02-.35,0-.71-.02-1.07-.03-.44-.02-.88-.04-1.31-.06-.36-.02-.72-.04-1.08-.07-.45-.03-.9-.07-1.35-.11-.36-.03-.72-.06-1.08-.1-.46-.04-.92-.1-1.38-.15-.36-.04-.72-.08-1.08-.13-.48-.06-.95-.13-1.43-.2-.35-.05-.71-.1-1.06-.15-.5-.08-1-.17-1.51-.25-.34-.06-.67-.11-1.01-.18-.55-.1-1.11-.22-1.67-.33-.29-.06-.58-.11-.87-.18-.81-.17-1.62-.36-2.43-.56-.04,0-.08-.02-.12-.03-.55-.14-1.1-.28-1.65-.44-.55-.16-1.09-.33-1.63-.52-1.08-.37-2.14-.78-3.19-1.24-.07-.03-.13-.06-.19-.09-.23-.1-.46-.21-.65-.3-7.94-3.85-11.97-10.63-10.18-15.64.08-.23.17-.45.27-.66.01-.02.02-.04.03-.06.09-.19.19-.37.3-.54,0,0,.01-.02.02-.02,3.43-5.54,13.62-3.92,7.45-6.72-6.29-2.86-9.66-6.57-10.64-10.13,0,0,0-.01,0-.02-.08-.31-.15-.62-.2-.93,0-.03,0-.05,0-.08-.04-.29-.07-.58-.08-.86,0-.06,0-.11,0-.16,0-.26,0-.51.02-.76,0-.09.03-.19.04-.28.03-.21.05-.43.09-.64.03-.15.08-.29.12-.44.04-.15.08-.31.13-.46.1-.29.21-.57.35-.85,0-.01,0-.02.01-.04.15-.31.33-.6.52-.86.06-.09.14-.16.21-.25.14-.17.28-.34.44-.49.1-.09.2-.17.31-.25.15-.12.3-.25.47-.36.12-.08.25-.15.38-.22.17-.09.33-.19.51-.27.14-.06.29-.12.43-.17.18-.07.37-.14.56-.2.16-.05.32-.09.49-.13.2-.05.4-.1.61-.14.17-.03.35-.06.53-.09.21-.03.43-.06.66-.08.19-.02.38-.03.57-.04.23-.01.46-.02.7-.03.11,0,.22-.01.34-.01.1,0,.2,0,.3,0,.18,0,.36,0,.55.02.24,0,.48.02.73.04.19.01.39.03.58.05.25.02.5.05.75.08.2.02.4.05.61.07.26.04.52.08.79.12.2.03.41.06.61.1.27.05.55.1.83.16.2.04.4.08.61.12.3.06.6.13.9.2.19.04.38.08.57.13.35.08.69.17,1.04.26.15.04.3.07.46.12.51.13,1.02.27,1.53.42.33.09.62.17.9.25.08.02.16.04.24.06.18.04.36.09.52.12.08.02.16.03.24.05.14.03.27.05.39.07.07,0,.13.02.2.02.11.01.21.02.31.02.06,0,.11,0,.16,0,.05,0,.09,0,.13,0,.06,0,.12-.01.17-.02.04,0,.07-.02.1-.02.05-.01.09-.03.12-.05.02-.01.05-.02.07-.04.04-.03.06-.06.09-.09.01-.01.03-.02.04-.04.03-.05.05-.1.06-.17,0-.01,0-.03,0-.05,0-.05,0-.1,0-.16,0-.03,0-.06-.01-.09,0-.05-.02-.1-.03-.16,0-.03-.02-.07-.03-.11-.02-.06-.03-.11-.06-.18-.01-.04-.03-.08-.04-.12-.02-.07-.05-.13-.08-.2-.02-.04-.03-.08-.05-.12-.04-.08-.08-.17-.12-.26-.01-.03-.03-.06-.04-.09-.06-.12-.12-.25-.18-.38-.06-.12-.12-.25-.18-.38-.02-.05-.04-.09-.07-.14-.05-.1-.1-.21-.15-.31-.03-.06-.05-.11-.08-.17-.05-.1-.09-.2-.14-.3-.03-.06-.05-.12-.08-.18-.05-.11-.09-.22-.14-.33-.02-.06-.05-.11-.07-.17-.06-.14-.11-.27-.16-.42-.01-.03-.03-.07-.04-.1-.06-.17-.12-.35-.18-.53-.01-.05-.03-.1-.04-.14-.04-.13-.08-.27-.12-.41-.02-.07-.03-.13-.05-.2-.03-.12-.06-.25-.08-.37-.01-.07-.03-.15-.04-.22-.02-.12-.04-.25-.06-.37,0-.07-.02-.15-.03-.22-.01-.13-.02-.27-.03-.4,0-.07,0-.13-.01-.2,0-.18,0-.36,0-.55,0-.02,0-.04,0-.06.01-.21.04-.41.07-.62,0-.06.02-.12.03-.18.03-.15.06-.3.09-.45.02-.08.04-.15.07-.23.04-.14.08-.27.13-.41.03-.08.06-.16.09-.25.05-.13.12-.27.18-.41.04-.08.08-.16.12-.24.08-.15.16-.29.25-.44.04-.07.08-.14.12-.21.14-.22.29-.43.46-.65.24-.3.5-.56.77-.8.08-.07.16-.13.24-.2.22-.18.45-.34.7-.48.08-.05.15-.1.23-.14.32-.17.65-.33,1-.45.07-.02.14-.04.21-.06.29-.1.59-.18.91-.25.11-.02.22-.05.34-.07.32-.06.66-.11,1-.14.07,0,.13-.02.2-.02.35-.03.71-.04,1.08-.04.04,0,.09,0,.13,0,.55,0,1.11.03,1.69.09.11.01.22.03.32.04.48.06.97.12,1.46.21.2.04.4.08.6.11.42.08.84.17,1.27.27.2.05.4.09.61.15.49.12.98.26,1.47.4.12.04.24.07.36.1.61.18,1.22.38,1.82.58.17.06.34.12.51.18.44.15.88.31,1.32.47.2.07.4.15.61.22.42.16.83.32,1.24.48.17.06.33.13.5.19.55.22,1.1.44,1.62.65.69.29,1.38.59,2.05.9.2.09.4.19.6.28.47.22.93.44,1.39.66.24.12.48.24.71.37.41.21.82.42,1.22.63.25.13.5.27.75.41.38.21.76.42,1.13.63.25.15.5.3.75.45.36.21.72.43,1.07.64.25.15.49.31.73.46.35.22.69.44,1.03.67.24.16.47.32.71.48.33.23.67.46.99.69.23.16.45.32.67.49.33.24.65.48.96.72.21.16.42.33.63.49.32.25.63.5.94.76.2.16.4.32.59.49.31.26.62.53.92.79.18.16.36.32.54.48.31.28.61.56.91.84.16.15.32.3.48.46.31.3.61.6.91.91.14.14.28.28.41.42.32.33.63.67.93,1,.1.11.21.23.31.34.35.39.69.79,1.02,1.19.05.06.1.12.15.17,4.48,5.45,7.14,11.26,7.54,16.71h0c.04.5.05.99.05,1.48,0,.07,0,.13,0,.2Zm10.45-15.55c-1.48-3.31-3.42-6.59-5.84-9.78-7.11-9.4-17.88-17.46-30.33-22.68l-.05-.02-.05-.02c-6.27-2.57-13.63-5.2-20.79-5.2s-13.51,2.82-17.55,7.94c-1.21,1.53-2.19,3.16-2.93,4.86h-.05c-4.42,0-15.22,1.11-20.21,11.4-2.05,4.22-2.62,8.91-1.74,13.51h-19.71c4.75-26.96,21.19-50.2,45.01-63.11l5.42-2.7c11.93-5.45,24.91-8.21,38.58-8.21,13.67,0,26.65,2.77,38.58,8.21l5.4,2.7c23.83,12.9,40.28,36.15,45.03,63.11h-58.77Z"/></g></g></svg>